<svg width="24" height="24" viewBox="0 0 24 24" fill="none" xmlns="http://www.w3.org/2000/svg">
<g id="Logo/error">
<path id="Vector 3" d="M6 10C7.80085 11.6447 9.31348 13.5536 10.9894 15.3341C11.4773 15.8524 12.0575 16.2633 12.5478 16.7761C13.1146 17.3688 13.7393 17.9188 14.4142 18.365C14.5633 18.4636 14.7484 18.6459 14.8666 18.7855C14.9941 18.9361 15.0831 19.1572 14.8792 18.8323" stroke="#B82C00" stroke-width="2" stroke-linecap="round" stroke-linejoin="round"/>
<path id="Vector 4" d="M5 20C7.4492 16.5569 10.5039 13.5992 13.3482 10.4882C14.0405 9.73099 14.7166 8.95564 15.4223 8.21087C15.8084 7.80341 16.1135 7.35259 16.4706 6.92295C16.9821 6.30767 17.4271 5.68337 18.0173 5.13544C18.2788 4.89273 18.5716 4.6328 18.7907 4.35036C18.9713 4.11753 19.1478 4.04929 18.8036 4" stroke="#B82C00" stroke-width="2" stroke-linecap="round" stroke-linejoin="round"/>
</g>
</svg>
