<svg width="24" height="24" viewBox="0 0 24 24" fill="none" xmlns="http://www.w3.org/2000/svg">
<g id="icon/arrow/buttons">
<g id="Group 20">
<path id="Vector 9" d="M20.9 12.0181C20.4918 12.0643 20.1552 12.0465 19.7832 12.0181C19.643 12.0074 19.4548 11.981 19.3179 12.0228C19.1329 12.0793 18.9177 12.1885 18.7285 12.1885C18.4818 12.1885 18.2507 12.359 18.015 12.359C17.4714 12.359 16.9472 12.5294 16.4018 12.5294C15.6324 12.5294 14.8396 12.6998 14.0718 12.6998C11.8298 12.6998 9.60372 12.8703 7.36069 12.8703C6.92123 12.8703 6.48182 12.9555 6.03709 12.9555C5.69436 12.9555 5.23965 13.0673 4.90651 12.9365C4.69016 12.8516 4.0787 12.7476 3.90002 12.8703" stroke="#303F73" stroke-width="2" stroke-linecap="round" stroke-linejoin="round"/>
<path id="Vector 10" d="M7.64417 15.3659C6.83084 14.7212 5.85808 14.0809 4.88572 13.7208C4.56345 13.6014 4.31633 13.2727 4.00997 13.1003C3.88521 13.0301 3.78261 12.9149 3.67314 12.8273C3.63433 12.7963 3.48996 12.901 3.53132 12.8734C3.82212 12.6795 4.03085 12.3181 4.24752 12.0473C4.5538 11.6644 5.00912 11.461 5.30764 11.0935C5.43845 10.9326 5.59233 10.8036 5.72956 10.6468C5.847 10.5126 6.0376 10.2366 6.1763 10.1469C6.33129 10.0466 6.4954 9.44749 6.4954 9.94123" stroke="#303F73" stroke-width="2" stroke-linecap="round" stroke-linejoin="round"/>
</g>
</g>
</svg>
