<svg width="24" height="24" viewBox="0 0 24 24" fill="none" xmlns="http://www.w3.org/2000/svg">
<g id="icon/arrow/buttons">
<g id="Group 20">
<path id="Vector 9" d="M3.09998 11.9819C3.50821 11.9357 3.84482 11.9535 4.21676 11.9819C4.35697 11.9926 4.54516 12.019 4.68209 11.9772C4.86709 11.9207 5.0823 11.8115 5.27151 11.8115C5.51817 11.8115 5.74928 11.641 5.98501 11.641C6.52865 11.641 7.0528 11.4706 7.59815 11.4706C8.36758 11.4706 9.16042 11.3002 9.92824 11.3002C12.1702 11.3002 14.3963 11.1297 16.6393 11.1297C17.0788 11.1297 17.5182 11.0445 17.9629 11.0445C18.3056 11.0445 18.7603 10.9327 19.0935 11.0635C19.3098 11.1484 19.9213 11.2524 20.1 11.1297" stroke="#303F73" stroke-width="2" stroke-linecap="round" stroke-linejoin="round"/>
<path id="Vector 10" d="M16.3558 8.63406C17.1692 9.27878 18.1419 9.91907 19.1143 10.2792C19.4366 10.3986 19.6837 10.7273 19.99 10.8997C20.1148 10.9699 20.2174 11.0851 20.3269 11.1727C20.3657 11.2037 20.51 11.099 20.4687 11.1266C20.1779 11.3205 19.9691 11.6819 19.7525 11.9527C19.4462 12.3356 18.9909 12.539 18.6924 12.9065C18.5616 13.0674 18.4077 13.1964 18.2704 13.3532C18.153 13.4874 17.9624 13.7634 17.8237 13.8531C17.6687 13.9534 17.5046 14.5525 17.5046 14.0588" stroke="#303F73" stroke-width="2" stroke-linecap="round" stroke-linejoin="round"/>
</g>
</g>
</svg>
