<svg width="77" height="77" viewBox="0 0 77 77" fill="none" xmlns="http://www.w3.org/2000/svg">
<g id="VinCaff&#195;&#169; Google Maps 2" clip-path="url(#clip0_2_2613)">
<path id="Vector" d="M77.0002 0H0.000183105V77H77.0002V0Z" fill="white"/>
<path id="Vector_2" d="M7.31506 4.62H4.62006V7.31499H7.31506V4.62Z" fill="black"/>
<path id="Vector_3" d="M10.0096 4.62H7.31458V7.31499H10.0096V4.62Z" fill="black"/>
<path id="Vector_4" d="M12.7054 4.62H10.0104V7.31499H12.7054V4.62Z" fill="black"/>
<path id="Vector_5" d="M15.4001 4.62H12.7051V7.31499H15.4001V4.62Z" fill="black"/>
<path id="Vector_6" d="M18.0946 4.62H15.3996V7.31499H18.0946V4.62Z" fill="black"/>
<path id="Vector_7" d="M20.7906 4.62H18.0956V7.31499H20.7906V4.62Z" fill="black"/>
<path id="Vector_8" d="M23.4852 4.62H20.7902V7.31499H23.4852V4.62Z" fill="black"/>
<path id="Vector_9" d="M31.5702 4.62H28.8752V7.31499H31.5702V4.62Z" fill="black"/>
<path id="Vector_10" d="M34.2646 4.62H31.5696V7.31499H34.2646V4.62Z" fill="black"/>
<path id="Vector_11" d="M36.9607 4.62H34.2657V7.31499H36.9607V4.62Z" fill="black"/>
<path id="Vector_12" d="M45.0458 4.62H42.3508V7.31499H45.0458V4.62Z" fill="black"/>
<path id="Vector_13" d="M50.435 4.62H47.74V7.31499H50.435V4.62Z" fill="black"/>
<path id="Vector_14" d="M55.8253 4.62H53.1302V7.31499H55.8253V4.62Z" fill="black"/>
<path id="Vector_15" d="M58.52 4.62H55.825V7.31499H58.52V4.62Z" fill="black"/>
<path id="Vector_16" d="M61.2158 4.62H58.5208V7.31499H61.2158V4.62Z" fill="black"/>
<path id="Vector_17" d="M63.9103 4.62H61.2153V7.31499H63.9103V4.62Z" fill="black"/>
<path id="Vector_18" d="M66.605 4.62H63.91V7.31499H66.605V4.62Z" fill="black"/>
<path id="Vector_19" d="M69.2995 4.62H66.6046V7.31499H69.2995V4.62Z" fill="black"/>
<path id="Vector_20" d="M71.9954 4.62H69.3004V7.31499H71.9954V4.62Z" fill="black"/>
<path id="Vector_21" d="M7.31506 7.31506H4.62006V10.0101H7.31506V7.31506Z" fill="black"/>
<path id="Vector_22" d="M23.4852 7.31506H20.7902V10.0101H23.4852V7.31506Z" fill="black"/>
<path id="Vector_23" d="M36.9607 7.31506H34.2657V10.0101H36.9607V7.31506Z" fill="black"/>
<path id="Vector_24" d="M39.6552 7.31506H36.9602V10.0101H39.6552V7.31506Z" fill="black"/>
<path id="Vector_25" d="M42.3497 7.31506H39.6547V10.0101H42.3497V7.31506Z" fill="black"/>
<path id="Vector_26" d="M45.0458 7.31506H42.3508V10.0101H45.0458V7.31506Z" fill="black"/>
<path id="Vector_27" d="M50.435 7.31506H47.74V10.0101H50.435V7.31506Z" fill="black"/>
<path id="Vector_28" d="M55.8253 7.31506H53.1302V10.0101H55.8253V7.31506Z" fill="black"/>
<path id="Vector_29" d="M71.9954 7.31506H69.3004V10.0101H71.9954V7.31506Z" fill="black"/>
<path id="Vector_30" d="M7.31506 10.01H4.62006V12.705H7.31506V10.01Z" fill="black"/>
<path id="Vector_31" d="M12.7054 10.01H10.0104V12.705H12.7054V10.01Z" fill="#E8178A"/>
<path id="Vector_32" d="M15.4001 10.01H12.7051V12.705H15.4001V10.01Z" fill="#E8178A"/>
<path id="Vector_33" d="M18.0946 10.01H15.3996V12.705H18.0946V10.01Z" fill="#E8178A"/>
<path id="Vector_34" d="M23.4852 10.01H20.7902V12.705H23.4852V10.01Z" fill="black"/>
<path id="Vector_35" d="M31.5702 10.01H28.8752V12.705H31.5702V10.01Z" fill="black"/>
<path id="Vector_36" d="M34.2646 10.01H31.5696V12.705H34.2646V10.01Z" fill="black"/>
<path id="Vector_37" d="M36.9607 10.01H34.2657V12.705H36.9607V10.01Z" fill="black"/>
<path id="Vector_38" d="M47.7403 10.01H45.0453V12.705H47.7403V10.01Z" fill="black"/>
<path id="Vector_39" d="M50.435 10.01H47.74V12.705H50.435V10.01Z" fill="black"/>
<path id="Vector_40" d="M55.8253 10.01H53.1302V12.705H55.8253V10.01Z" fill="black"/>
<path id="Vector_41" d="M61.2158 10.01H58.5208V12.705H61.2158V10.01Z" fill="black"/>
<path id="Vector_42" d="M63.9103 10.01H61.2153V12.705H63.9103V10.01Z" fill="black"/>
<path id="Vector_43" d="M66.605 10.01H63.91V12.705H66.605V10.01Z" fill="black"/>
<path id="Vector_44" d="M71.9954 10.01H69.3004V12.705H71.9954V10.01Z" fill="black"/>
<path id="Vector_45" d="M7.31506 12.7051H4.62006V15.4001H7.31506V12.7051Z" fill="black"/>
<path id="Vector_46" d="M12.7054 12.7051H10.0104V15.4001H12.7054V12.7051Z" fill="#E8178A"/>
<path id="Vector_47" d="M15.4001 12.7051H12.7051V15.4001H15.4001V12.7051Z" fill="#E8178A"/>
<path id="Vector_48" d="M18.0946 12.7051H15.3996V15.4001H18.0946V12.7051Z" fill="#E8178A"/>
<path id="Vector_49" d="M23.4852 12.7051H20.7902V15.4001H23.4852V12.7051Z" fill="black"/>
<path id="Vector_50" d="M28.8757 12.7051H26.1807V15.4001H28.8757V12.7051Z" fill="black"/>
<path id="Vector_51" d="M34.2646 12.7051H31.5696V15.4001H34.2646V12.7051Z" fill="black"/>
<path id="Vector_52" d="M36.9607 12.7051H34.2657V15.4001H36.9607V12.7051Z" fill="black"/>
<path id="Vector_53" d="M39.6552 12.7051H36.9602V15.4001H39.6552V12.7051Z" fill="black"/>
<path id="Vector_54" d="M42.3497 12.7051H39.6547V15.4001H42.3497V12.7051Z" fill="black"/>
<path id="Vector_55" d="M50.435 12.7051H47.74V15.4001H50.435V12.7051Z" fill="black"/>
<path id="Vector_56" d="M55.8253 12.7051H53.1302V15.4001H55.8253V12.7051Z" fill="black"/>
<path id="Vector_57" d="M61.2158 12.7051H58.5208V15.4001H61.2158V12.7051Z" fill="black"/>
<path id="Vector_58" d="M63.9103 12.7051H61.2153V15.4001H63.9103V12.7051Z" fill="black"/>
<path id="Vector_59" d="M66.605 12.7051H63.91V15.4001H66.605V12.7051Z" fill="black"/>
<path id="Vector_60" d="M71.9954 12.7051H69.3004V15.4001H71.9954V12.7051Z" fill="black"/>
<path id="Vector_61" d="M7.31506 15.4H4.62006V18.095H7.31506V15.4Z" fill="black"/>
<path id="Vector_62" d="M12.7054 15.4H10.0104V18.095H12.7054V15.4Z" fill="#E8178A"/>
<path id="Vector_63" d="M15.4001 15.4H12.7051V18.095H15.4001V15.4Z" fill="#E8178A"/>
<path id="Vector_64" d="M18.0946 15.4H15.3996V18.095H18.0946V15.4Z" fill="#E8178A"/>
<path id="Vector_65" d="M23.4852 15.4H20.7902V18.095H23.4852V15.4Z" fill="black"/>
<path id="Vector_66" d="M28.8757 15.4H26.1807V18.095H28.8757V15.4Z" fill="black"/>
<path id="Vector_67" d="M34.2646 15.4H31.5696V18.095H34.2646V15.4Z" fill="black"/>
<path id="Vector_68" d="M39.6552 15.4H36.9602V18.095H39.6552V15.4Z" fill="black"/>
<path id="Vector_69" d="M42.3497 15.4H39.6547V18.095H42.3497V15.4Z" fill="black"/>
<path id="Vector_70" d="M50.435 15.4H47.74V18.095H50.435V15.4Z" fill="black"/>
<path id="Vector_71" d="M55.8253 15.4H53.1302V18.095H55.8253V15.4Z" fill="black"/>
<path id="Vector_72" d="M61.2158 15.4H58.5208V18.095H61.2158V15.4Z" fill="black"/>
<path id="Vector_73" d="M63.9103 15.4H61.2153V18.095H63.9103V15.4Z" fill="black"/>
<path id="Vector_74" d="M66.605 15.4H63.91V18.095H66.605V15.4Z" fill="black"/>
<path id="Vector_75" d="M71.9954 15.4H69.3004V18.095H71.9954V15.4Z" fill="black"/>
<path id="Vector_76" d="M7.31506 18.095H4.62006V20.79H7.31506V18.095Z" fill="black"/>
<path id="Vector_77" d="M23.4852 18.095H20.7902V20.79H23.4852V18.095Z" fill="black"/>
<path id="Vector_78" d="M31.5702 18.095H28.8752V20.79H31.5702V18.095Z" fill="black"/>
<path id="Vector_79" d="M34.2646 18.095H31.5696V20.79H34.2646V18.095Z" fill="black"/>
<path id="Vector_80" d="M39.6552 18.095H36.9602V20.79H39.6552V18.095Z" fill="black"/>
<path id="Vector_81" d="M45.0458 18.095H42.3508V20.79H45.0458V18.095Z" fill="black"/>
<path id="Vector_82" d="M50.435 18.095H47.74V20.79H50.435V18.095Z" fill="black"/>
<path id="Vector_83" d="M55.8253 18.095H53.1302V20.79H55.8253V18.095Z" fill="black"/>
<path id="Vector_84" d="M71.9954 18.095H69.3004V20.79H71.9954V18.095Z" fill="black"/>
<path id="Vector_85" d="M7.31506 20.7899H4.62006V23.4849H7.31506V20.7899Z" fill="black"/>
<path id="Vector_86" d="M10.0096 20.7899H7.31458V23.4849H10.0096V20.7899Z" fill="black"/>
<path id="Vector_87" d="M12.7054 20.7899H10.0104V23.4849H12.7054V20.7899Z" fill="black"/>
<path id="Vector_88" d="M15.4001 20.7899H12.7051V23.4849H15.4001V20.7899Z" fill="black"/>
<path id="Vector_89" d="M18.0946 20.7899H15.3996V23.4849H18.0946V20.7899Z" fill="black"/>
<path id="Vector_90" d="M20.7906 20.7899H18.0956V23.4849H20.7906V20.7899Z" fill="black"/>
<path id="Vector_91" d="M23.4852 20.7899H20.7902V23.4849H23.4852V20.7899Z" fill="black"/>
<path id="Vector_92" d="M28.8757 20.7899H26.1807V23.4849H28.8757V20.7899Z" fill="black"/>
<path id="Vector_93" d="M34.2646 20.7899H31.5696V23.4849H34.2646V20.7899Z" fill="black"/>
<path id="Vector_94" d="M39.6552 20.7899H36.9602V23.4849H39.6552V20.7899Z" fill="black"/>
<path id="Vector_95" d="M45.0458 20.7899H42.3508V23.4849H45.0458V20.7899Z" fill="black"/>
<path id="Vector_96" d="M50.435 20.7899H47.74V23.4849H50.435V20.7899Z" fill="black"/>
<path id="Vector_97" d="M55.8253 20.7899H53.1302V23.4849H55.8253V20.7899Z" fill="black"/>
<path id="Vector_98" d="M58.52 20.7899H55.825V23.4849H58.52V20.7899Z" fill="black"/>
<path id="Vector_99" d="M61.2158 20.7899H58.5208V23.4849H61.2158V20.7899Z" fill="black"/>
<path id="Vector_100" d="M63.9103 20.7899H61.2153V23.4849H63.9103V20.7899Z" fill="black"/>
<path id="Vector_101" d="M66.605 20.7899H63.91V23.4849H66.605V20.7899Z" fill="black"/>
<path id="Vector_102" d="M69.2995 20.7899H66.6046V23.4849H69.2995V20.7899Z" fill="black"/>
<path id="Vector_103" d="M71.9954 20.7899H69.3004V23.4849H71.9954V20.7899Z" fill="black"/>
<path id="Vector_104" d="M31.5702 23.485H28.8752V26.18H31.5702V23.485Z" fill="black"/>
<path id="Vector_105" d="M36.9607 23.485H34.2657V26.18H36.9607V23.485Z" fill="black"/>
<path id="Vector_106" d="M39.6552 23.485H36.9602V26.18H39.6552V23.485Z" fill="black"/>
<path id="Vector_107" d="M47.7403 23.485H45.0453V26.18H47.7403V23.485Z" fill="black"/>
<path id="Vector_108" d="M50.435 23.485H47.74V26.18H50.435V23.485Z" fill="black"/>
<path id="Vector_109" d="M7.31506 26.1799H4.62006V28.8749H7.31506V26.1799Z" fill="black"/>
<path id="Vector_110" d="M10.0096 26.1799H7.31458V28.8749H10.0096V26.1799Z" fill="black"/>
<path id="Vector_111" d="M20.7906 26.1799H18.0956V28.8749H20.7906V26.1799Z" fill="black"/>
<path id="Vector_112" d="M23.4852 26.1799H20.7902V28.8749H23.4852V26.1799Z" fill="black"/>
<path id="Vector_113" d="M26.1796 26.1799H23.4846V28.8749H26.1796V26.1799Z" fill="black"/>
<path id="Vector_114" d="M31.5702 26.1799H28.8752V28.8749H31.5702V26.1799Z" fill="black"/>
<path id="Vector_115" d="M34.2646 26.1799H31.5696V28.8749H34.2646V26.1799Z" fill="black"/>
<path id="Vector_116" d="M39.6552 26.1799H36.9602V28.8749H39.6552V26.1799Z" fill="black"/>
<path id="Vector_117" d="M42.3497 26.1799H39.6547V28.8749H42.3497V26.1799Z" fill="black"/>
<path id="Vector_118" d="M45.0458 26.1799H42.3508V28.8749H45.0458V26.1799Z" fill="black"/>
<path id="Vector_119" d="M47.7403 26.1799H45.0453V28.8749H47.7403V26.1799Z" fill="black"/>
<path id="Vector_120" d="M61.2158 26.1799H58.5208V28.8749H61.2158V26.1799Z" fill="black"/>
<path id="Vector_121" d="M63.9103 26.1799H61.2153V28.8749H63.9103V26.1799Z" fill="black"/>
<path id="Vector_122" d="M7.31506 28.875H4.62006V31.57H7.31506V28.875Z" fill="black"/>
<path id="Vector_123" d="M18.0946 28.875H15.3996V31.57H18.0946V28.875Z" fill="black"/>
<path id="Vector_124" d="M34.2646 28.875H31.5696V31.57H34.2646V28.875Z" fill="black"/>
<path id="Vector_125" d="M36.9607 28.875H34.2657V31.57H36.9607V28.875Z" fill="black"/>
<path id="Vector_126" d="M42.3497 28.875H39.6547V31.57H42.3497V28.875Z" fill="black"/>
<path id="Vector_127" d="M45.0458 28.875H42.3508V31.57H45.0458V28.875Z" fill="black"/>
<path id="Vector_128" d="M47.7403 28.875H45.0453V31.57H47.7403V28.875Z" fill="black"/>
<path id="Vector_129" d="M53.1308 28.875H50.4358V31.57H53.1308V28.875Z" fill="black"/>
<path id="Vector_130" d="M58.52 28.875H55.825V31.57H58.52V28.875Z" fill="black"/>
<path id="Vector_131" d="M61.2158 28.875H58.5208V31.57H61.2158V28.875Z" fill="black"/>
<path id="Vector_132" d="M63.9103 28.875H61.2153V31.57H63.9103V28.875Z" fill="black"/>
<path id="Vector_133" d="M66.605 28.875H63.91V31.57H66.605V28.875Z" fill="black"/>
<path id="Vector_134" d="M69.2995 28.875H66.6046V31.57H69.2995V28.875Z" fill="black"/>
<path id="Vector_135" d="M10.0096 31.5701H7.31458V34.2651H10.0096V31.5701Z" fill="black"/>
<path id="Vector_136" d="M12.7054 31.5701H10.0104V34.2651H12.7054V31.5701Z" fill="black"/>
<path id="Vector_137" d="M23.4852 31.5701H20.7902V34.2651H23.4852V31.5701Z" fill="black"/>
<path id="Vector_138" d="M28.8757 31.5701H26.1807V34.2651H28.8757V31.5701Z" fill="black"/>
<path id="Vector_139" d="M31.5702 31.5701H28.8752V34.2651H31.5702V31.5701Z" fill="black"/>
<path id="Vector_140" d="M39.6552 31.5701H36.9602V34.2651H39.6552V31.5701Z" fill="black"/>
<path id="Vector_141" d="M47.7403 31.5701H45.0453V34.2651H47.7403V31.5701Z" fill="black"/>
<path id="Vector_142" d="M50.435 31.5701H47.74V34.2651H50.435V31.5701Z" fill="black"/>
<path id="Vector_143" d="M55.8253 31.5701H53.1302V34.2651H55.8253V31.5701Z" fill="black"/>
<path id="Vector_144" d="M58.52 31.5701H55.825V34.2651H58.52V31.5701Z" fill="black"/>
<path id="Vector_145" d="M63.9103 31.5701H61.2153V34.2651H63.9103V31.5701Z" fill="black"/>
<path id="Vector_146" d="M69.2995 31.5701H66.6046V34.2651H69.2995V31.5701Z" fill="black"/>
<path id="Vector_147" d="M71.9954 31.5701H69.3004V34.2651H71.9954V31.5701Z" fill="black"/>
<path id="Vector_148" d="M10.0096 34.265H7.31458V36.96H10.0096V34.265Z" fill="black"/>
<path id="Vector_149" d="M15.4001 34.265H12.7051V36.96H15.4001V34.265Z" fill="black"/>
<path id="Vector_150" d="M18.0946 34.265H15.3996V36.96H18.0946V34.265Z" fill="black"/>
<path id="Vector_151" d="M34.2646 34.265H31.5696V36.96H34.2646V34.265Z" fill="black"/>
<path id="Vector_152" d="M39.6552 34.265H36.9602V36.96H39.6552V34.265Z" fill="black"/>
<path id="Vector_153" d="M45.0458 34.265H42.3508V36.96H45.0458V34.265Z" fill="black"/>
<path id="Vector_154" d="M63.9103 34.265H61.2153V36.96H63.9103V34.265Z" fill="black"/>
<path id="Vector_155" d="M71.9954 34.265H69.3004V36.96H71.9954V34.265Z" fill="black"/>
<path id="Vector_156" d="M7.31506 36.9601H4.62006V39.6551H7.31506V36.9601Z" fill="black"/>
<path id="Vector_157" d="M15.4001 36.9601H12.7051V39.6551H15.4001V36.9601Z" fill="black"/>
<path id="Vector_158" d="M23.4852 36.9601H20.7902V39.6551H23.4852V36.9601Z" fill="black"/>
<path id="Vector_159" d="M28.8757 36.9601H26.1807V39.6551H28.8757V36.9601Z" fill="black"/>
<path id="Vector_160" d="M31.5702 36.9601H28.8752V39.6551H31.5702V36.9601Z" fill="black"/>
<path id="Vector_161" d="M34.2646 36.9601H31.5696V39.6551H34.2646V36.9601Z" fill="black"/>
<path id="Vector_162" d="M47.7403 36.9601H45.0453V39.6551H47.7403V36.9601Z" fill="black"/>
<path id="Vector_163" d="M50.435 36.9601H47.74V39.6551H50.435V36.9601Z" fill="black"/>
<path id="Vector_164" d="M55.8253 36.9601H53.1302V39.6551H55.8253V36.9601Z" fill="black"/>
<path id="Vector_165" d="M71.9954 36.9601H69.3004V39.6551H71.9954V36.9601Z" fill="black"/>
<path id="Vector_166" d="M7.31506 39.655H4.62006V42.35H7.31506V39.655Z" fill="black"/>
<path id="Vector_167" d="M10.0096 39.655H7.31458V42.35H10.0096V39.655Z" fill="black"/>
<path id="Vector_168" d="M15.4001 39.655H12.7051V42.35H15.4001V39.655Z" fill="black"/>
<path id="Vector_169" d="M28.8757 39.655H26.1807V42.35H28.8757V39.655Z" fill="black"/>
<path id="Vector_170" d="M34.2646 39.655H31.5696V42.35H34.2646V39.655Z" fill="black"/>
<path id="Vector_171" d="M36.9607 39.655H34.2657V42.35H36.9607V39.655Z" fill="black"/>
<path id="Vector_172" d="M42.3497 39.655H39.6547V42.35H42.3497V39.655Z" fill="black"/>
<path id="Vector_173" d="M47.7403 39.655H45.0453V42.35H47.7403V39.655Z" fill="black"/>
<path id="Vector_174" d="M50.435 39.655H47.74V42.35H50.435V39.655Z" fill="black"/>
<path id="Vector_175" d="M58.52 39.655H55.825V42.35H58.52V39.655Z" fill="black"/>
<path id="Vector_176" d="M69.2995 39.655H66.6046V42.35H69.2995V39.655Z" fill="black"/>
<path id="Vector_177" d="M7.31506 42.35H4.62006V45.045H7.31506V42.35Z" fill="black"/>
<path id="Vector_178" d="M15.4001 42.35H12.7051V45.045H15.4001V42.35Z" fill="black"/>
<path id="Vector_179" d="M18.0946 42.35H15.3996V45.045H18.0946V42.35Z" fill="black"/>
<path id="Vector_180" d="M20.7906 42.35H18.0956V45.045H20.7906V42.35Z" fill="black"/>
<path id="Vector_181" d="M23.4852 42.35H20.7902V45.045H23.4852V42.35Z" fill="black"/>
<path id="Vector_182" d="M34.2646 42.35H31.5696V45.045H34.2646V42.35Z" fill="black"/>
<path id="Vector_183" d="M42.3497 42.35H39.6547V45.045H42.3497V42.35Z" fill="black"/>
<path id="Vector_184" d="M45.0458 42.35H42.3508V45.045H45.0458V42.35Z" fill="black"/>
<path id="Vector_185" d="M47.7403 42.35H45.0453V45.045H47.7403V42.35Z" fill="black"/>
<path id="Vector_186" d="M53.1308 42.35H50.4358V45.045H53.1308V42.35Z" fill="black"/>
<path id="Vector_187" d="M55.8253 42.35H53.1302V45.045H55.8253V42.35Z" fill="black"/>
<path id="Vector_188" d="M58.52 42.35H55.825V45.045H58.52V42.35Z" fill="black"/>
<path id="Vector_189" d="M61.2158 42.35H58.5208V45.045H61.2158V42.35Z" fill="black"/>
<path id="Vector_190" d="M63.9103 42.35H61.2153V45.045H63.9103V42.35Z" fill="black"/>
<path id="Vector_191" d="M69.2995 42.35H66.6046V45.045H69.2995V42.35Z" fill="black"/>
<path id="Vector_192" d="M71.9954 42.35H69.3004V45.045H71.9954V42.35Z" fill="black"/>
<path id="Vector_193" d="M7.31506 45.0449H4.62006V47.7399H7.31506V45.0449Z" fill="black"/>
<path id="Vector_194" d="M12.7054 45.0449H10.0104V47.7399H12.7054V45.0449Z" fill="black"/>
<path id="Vector_195" d="M15.4001 45.0449H12.7051V47.7399H15.4001V45.0449Z" fill="black"/>
<path id="Vector_196" d="M20.7906 45.0449H18.0956V47.7399H20.7906V45.0449Z" fill="black"/>
<path id="Vector_197" d="M28.8757 45.0449H26.1807V47.7399H28.8757V45.0449Z" fill="black"/>
<path id="Vector_198" d="M34.2646 45.0449H31.5696V47.7399H34.2646V45.0449Z" fill="black"/>
<path id="Vector_199" d="M45.0458 45.0449H42.3508V47.7399H45.0458V45.0449Z" fill="black"/>
<path id="Vector_200" d="M50.435 45.0449H47.74V47.7399H50.435V45.0449Z" fill="black"/>
<path id="Vector_201" d="M53.1308 45.0449H50.4358V47.7399H53.1308V45.0449Z" fill="black"/>
<path id="Vector_202" d="M58.52 45.0449H55.825V47.7399H58.52V45.0449Z" fill="black"/>
<path id="Vector_203" d="M63.9103 45.0449H61.2153V47.7399H63.9103V45.0449Z" fill="black"/>
<path id="Vector_204" d="M66.605 45.0449H63.91V47.7399H66.605V45.0449Z" fill="black"/>
<path id="Vector_205" d="M71.9954 45.0449H69.3004V47.7399H71.9954V45.0449Z" fill="black"/>
<path id="Vector_206" d="M7.31506 47.74H4.62006V50.435H7.31506V47.74Z" fill="black"/>
<path id="Vector_207" d="M20.7906 47.74H18.0956V50.435H20.7906V47.74Z" fill="black"/>
<path id="Vector_208" d="M23.4852 47.74H20.7902V50.435H23.4852V47.74Z" fill="black"/>
<path id="Vector_209" d="M28.8757 47.74H26.1807V50.435H28.8757V47.74Z" fill="black"/>
<path id="Vector_210" d="M31.5702 47.74H28.8752V50.435H31.5702V47.74Z" fill="black"/>
<path id="Vector_211" d="M42.3497 47.74H39.6547V50.435H42.3497V47.74Z" fill="black"/>
<path id="Vector_212" d="M45.0458 47.74H42.3508V50.435H45.0458V47.74Z" fill="black"/>
<path id="Vector_213" d="M47.7403 47.74H45.0453V50.435H47.7403V47.74Z" fill="black"/>
<path id="Vector_214" d="M50.435 47.74H47.74V50.435H50.435V47.74Z" fill="black"/>
<path id="Vector_215" d="M53.1308 47.74H50.4358V50.435H53.1308V47.74Z" fill="black"/>
<path id="Vector_216" d="M55.8253 47.74H53.1302V50.435H55.8253V47.74Z" fill="black"/>
<path id="Vector_217" d="M58.52 47.74H55.825V50.435H58.52V47.74Z" fill="black"/>
<path id="Vector_218" d="M61.2158 47.74H58.5208V50.435H61.2158V47.74Z" fill="black"/>
<path id="Vector_219" d="M66.605 47.74H63.91V50.435H66.605V47.74Z" fill="black"/>
<path id="Vector_220" d="M28.8757 50.4349H26.1807V53.1299H28.8757V50.4349Z" fill="black"/>
<path id="Vector_221" d="M31.5702 50.4349H28.8752V53.1299H31.5702V50.4349Z" fill="black"/>
<path id="Vector_222" d="M34.2646 50.4349H31.5696V53.1299H34.2646V50.4349Z" fill="black"/>
<path id="Vector_223" d="M36.9607 50.4349H34.2657V53.1299H36.9607V50.4349Z" fill="black"/>
<path id="Vector_224" d="M39.6552 50.4349H36.9602V53.1299H39.6552V50.4349Z" fill="black"/>
<path id="Vector_225" d="M42.3497 50.4349H39.6547V53.1299H42.3497V50.4349Z" fill="black"/>
<path id="Vector_226" d="M47.7403 50.4349H45.0453V53.1299H47.7403V50.4349Z" fill="black"/>
<path id="Vector_227" d="M50.435 50.4349H47.74V53.1299H50.435V50.4349Z" fill="black"/>
<path id="Vector_228" d="M61.2158 50.4349H58.5208V53.1299H61.2158V50.4349Z" fill="black"/>
<path id="Vector_229" d="M7.31506 53.13H4.62006V55.825H7.31506V53.13Z" fill="black"/>
<path id="Vector_230" d="M10.0096 53.13H7.31458V55.825H10.0096V53.13Z" fill="black"/>
<path id="Vector_231" d="M12.7054 53.13H10.0104V55.825H12.7054V53.13Z" fill="black"/>
<path id="Vector_232" d="M15.4001 53.13H12.7051V55.825H15.4001V53.13Z" fill="black"/>
<path id="Vector_233" d="M18.0946 53.13H15.3996V55.825H18.0946V53.13Z" fill="black"/>
<path id="Vector_234" d="M20.7906 53.13H18.0956V55.825H20.7906V53.13Z" fill="black"/>
<path id="Vector_235" d="M23.4852 53.13H20.7902V55.825H23.4852V53.13Z" fill="black"/>
<path id="Vector_236" d="M28.8757 53.13H26.1807V55.825H28.8757V53.13Z" fill="black"/>
<path id="Vector_237" d="M36.9607 53.13H34.2657V55.825H36.9607V53.13Z" fill="black"/>
<path id="Vector_238" d="M45.0458 53.13H42.3508V55.825H45.0458V53.13Z" fill="black"/>
<path id="Vector_239" d="M50.435 53.13H47.74V55.825H50.435V53.13Z" fill="black"/>
<path id="Vector_240" d="M55.8253 53.13H53.1302V55.825H55.8253V53.13Z" fill="#E8178A"/>
<path id="Vector_241" d="M61.2158 53.13H58.5208V55.825H61.2158V53.13Z" fill="black"/>
<path id="Vector_242" d="M71.9954 53.13H69.3004V55.825H71.9954V53.13Z" fill="black"/>
<path id="Vector_243" d="M7.31506 55.8251H4.62006V58.5201H7.31506V55.8251Z" fill="black"/>
<path id="Vector_244" d="M23.4852 55.8251H20.7902V58.5201H23.4852V55.8251Z" fill="black"/>
<path id="Vector_245" d="M28.8757 55.8251H26.1807V58.5201H28.8757V55.8251Z" fill="black"/>
<path id="Vector_246" d="M31.5702 55.8251H28.8752V58.5201H31.5702V55.8251Z" fill="black"/>
<path id="Vector_247" d="M34.2646 55.8251H31.5696V58.5201H34.2646V55.8251Z" fill="black"/>
<path id="Vector_248" d="M45.0458 55.8251H42.3508V58.5201H45.0458V55.8251Z" fill="black"/>
<path id="Vector_249" d="M47.7403 55.8251H45.0453V58.5201H47.7403V55.8251Z" fill="black"/>
<path id="Vector_250" d="M50.435 55.8251H47.74V58.5201H50.435V55.8251Z" fill="black"/>
<path id="Vector_251" d="M61.2158 55.8251H58.5208V58.5201H61.2158V55.8251Z" fill="black"/>
<path id="Vector_252" d="M71.9954 55.8251H69.3004V58.5201H71.9954V55.8251Z" fill="black"/>
<path id="Vector_253" d="M7.31506 58.52H4.62006V61.215H7.31506V58.52Z" fill="black"/>
<path id="Vector_254" d="M12.7054 58.52H10.0104V61.215H12.7054V58.52Z" fill="black"/>
<path id="Vector_255" d="M15.4001 58.52H12.7051V61.215H15.4001V58.52Z" fill="black"/>
<path id="Vector_256" d="M18.0946 58.52H15.3996V61.215H18.0946V58.52Z" fill="black"/>
<path id="Vector_257" d="M23.4852 58.52H20.7902V61.215H23.4852V58.52Z" fill="black"/>
<path id="Vector_258" d="M31.5702 58.52H28.8752V61.215H31.5702V58.52Z" fill="black"/>
<path id="Vector_259" d="M42.3497 58.52H39.6547V61.215H42.3497V58.52Z" fill="black"/>
<path id="Vector_260" d="M47.7403 58.52H45.0453V61.215H47.7403V58.52Z" fill="black"/>
<path id="Vector_261" d="M50.435 58.52H47.74V61.215H50.435V58.52Z" fill="black"/>
<path id="Vector_262" d="M53.1308 58.52H50.4358V61.215H53.1308V58.52Z" fill="black"/>
<path id="Vector_263" d="M55.8253 58.52H53.1302V61.215H55.8253V58.52Z" fill="black"/>
<path id="Vector_264" d="M58.52 58.52H55.825V61.215H58.52V58.52Z" fill="black"/>
<path id="Vector_265" d="M61.2158 58.52H58.5208V61.215H61.2158V58.52Z" fill="black"/>
<path id="Vector_266" d="M66.605 58.52H63.91V61.215H66.605V58.52Z" fill="black"/>
<path id="Vector_267" d="M69.2995 58.52H66.6046V61.215H69.2995V58.52Z" fill="black"/>
<path id="Vector_268" d="M7.31506 61.2151H4.62006V63.9101H7.31506V61.2151Z" fill="black"/>
<path id="Vector_269" d="M12.7054 61.2151H10.0104V63.9101H12.7054V61.2151Z" fill="black"/>
<path id="Vector_270" d="M15.4001 61.2151H12.7051V63.9101H15.4001V61.2151Z" fill="black"/>
<path id="Vector_271" d="M18.0946 61.2151H15.3996V63.9101H18.0946V61.2151Z" fill="black"/>
<path id="Vector_272" d="M23.4852 61.2151H20.7902V63.9101H23.4852V61.2151Z" fill="black"/>
<path id="Vector_273" d="M31.5702 61.2151H28.8752V63.9101H31.5702V61.2151Z" fill="black"/>
<path id="Vector_274" d="M36.9607 61.2151H34.2657V63.9101H36.9607V61.2151Z" fill="black"/>
<path id="Vector_275" d="M42.3497 61.2151H39.6547V63.9101H42.3497V61.2151Z" fill="black"/>
<path id="Vector_276" d="M45.0458 61.2151H42.3508V63.9101H45.0458V61.2151Z" fill="black"/>
<path id="Vector_277" d="M53.1308 61.2151H50.4358V63.9101H53.1308V61.2151Z" fill="black"/>
<path id="Vector_278" d="M55.8253 61.2151H53.1302V63.9101H55.8253V61.2151Z" fill="black"/>
<path id="Vector_279" d="M69.2995 61.2151H66.6046V63.9101H69.2995V61.2151Z" fill="black"/>
<path id="Vector_280" d="M71.9954 61.2151H69.3004V63.9101H71.9954V61.2151Z" fill="black"/>
<path id="Vector_281" d="M7.31506 63.9099H4.62006V66.6049H7.31506V63.9099Z" fill="black"/>
<path id="Vector_282" d="M12.7054 63.9099H10.0104V66.6049H12.7054V63.9099Z" fill="black"/>
<path id="Vector_283" d="M15.4001 63.9099H12.7051V66.6049H15.4001V63.9099Z" fill="black"/>
<path id="Vector_284" d="M18.0946 63.9099H15.3996V66.6049H18.0946V63.9099Z" fill="black"/>
<path id="Vector_285" d="M23.4852 63.9099H20.7902V66.6049H23.4852V63.9099Z" fill="black"/>
<path id="Vector_286" d="M31.5702 63.9099H28.8752V66.6049H31.5702V63.9099Z" fill="black"/>
<path id="Vector_287" d="M42.3497 63.9099H39.6547V66.6049H42.3497V63.9099Z" fill="black"/>
<path id="Vector_288" d="M45.0458 63.9099H42.3508V66.6049H45.0458V63.9099Z" fill="black"/>
<path id="Vector_289" d="M50.435 63.9099H47.74V66.6049H50.435V63.9099Z" fill="black"/>
<path id="Vector_290" d="M63.9103 63.9099H61.2153V66.6049H63.9103V63.9099Z" fill="black"/>
<path id="Vector_291" d="M66.605 63.9099H63.91V66.6049H66.605V63.9099Z" fill="black"/>
<path id="Vector_292" d="M71.9954 63.9099H69.3004V66.6049H71.9954V63.9099Z" fill="black"/>
<path id="Vector_293" d="M7.31506 66.605H4.62006V69.3H7.31506V66.605Z" fill="black"/>
<path id="Vector_294" d="M23.4852 66.605H20.7902V69.3H23.4852V66.605Z" fill="black"/>
<path id="Vector_295" d="M28.8757 66.605H26.1807V69.3H28.8757V66.605Z" fill="black"/>
<path id="Vector_296" d="M31.5702 66.605H28.8752V69.3H31.5702V66.605Z" fill="black"/>
<path id="Vector_297" d="M45.0458 66.605H42.3508V69.3H45.0458V66.605Z" fill="black"/>
<path id="Vector_298" d="M50.435 66.605H47.74V69.3H50.435V66.605Z" fill="black"/>
<path id="Vector_299" d="M53.1308 66.605H50.4358V69.3H53.1308V66.605Z" fill="black"/>
<path id="Vector_300" d="M58.52 66.605H55.825V69.3H58.52V66.605Z" fill="black"/>
<path id="Vector_301" d="M61.2158 66.605H58.5208V69.3H61.2158V66.605Z" fill="black"/>
<path id="Vector_302" d="M71.9954 66.605H69.3004V69.3H71.9954V66.605Z" fill="black"/>
<path id="Vector_303" d="M7.31506 69.2999H4.62006V71.9949H7.31506V69.2999Z" fill="black"/>
<path id="Vector_304" d="M10.0096 69.2999H7.31458V71.9949H10.0096V69.2999Z" fill="black"/>
<path id="Vector_305" d="M12.7054 69.2999H10.0104V71.9949H12.7054V69.2999Z" fill="black"/>
<path id="Vector_306" d="M15.4001 69.2999H12.7051V71.9949H15.4001V69.2999Z" fill="black"/>
<path id="Vector_307" d="M18.0946 69.2999H15.3996V71.9949H18.0946V69.2999Z" fill="black"/>
<path id="Vector_308" d="M20.7906 69.2999H18.0956V71.9949H20.7906V69.2999Z" fill="black"/>
<path id="Vector_309" d="M23.4852 69.2999H20.7902V71.9949H23.4852V69.2999Z" fill="black"/>
<path id="Vector_310" d="M28.8757 69.2999H26.1807V71.9949H28.8757V69.2999Z" fill="black"/>
<path id="Vector_311" d="M31.5702 69.2999H28.8752V71.9949H31.5702V69.2999Z" fill="black"/>
<path id="Vector_312" d="M34.2646 69.2999H31.5696V71.9949H34.2646V69.2999Z" fill="black"/>
<path id="Vector_313" d="M36.9607 69.2999H34.2657V71.9949H36.9607V69.2999Z" fill="black"/>
<path id="Vector_314" d="M45.0458 69.2999H42.3508V71.9949H45.0458V69.2999Z" fill="black"/>
<path id="Vector_315" d="M47.7403 69.2999H45.0453V71.9949H47.7403V69.2999Z" fill="black"/>
<path id="Vector_316" d="M50.435 69.2999H47.74V71.9949H50.435V69.2999Z" fill="black"/>
<path id="Vector_317" d="M63.9103 69.2999H61.2153V71.9949H63.9103V69.2999Z" fill="black"/>
<path id="Vector_318" d="M71.9954 69.2999H69.3004V71.9949H71.9954V69.2999Z" fill="black"/>
</g>
<defs>
<clipPath id="clip0_2_2613">
<rect width="77" height="77" fill="white"/>
</clipPath>
</defs>
</svg>
